<svg width="169" height="1154" viewBox="0 0 169 1154" fill="none" xmlns="http://www.w3.org/2000/svg">
<path d="M1155 577.317C1153.26 514.72 1145.49 461.473 1131.38 414.724C1129.32 405.849 1126.15 397.292 1122.98 389.051C1121.24 384.614 1119.65 380.335 1117.91 375.264C1113.31 362.745 1108.72 349.591 1102.38 337.547L1096.83 325.979C1092.71 317.421 1088.75 309.022 1084.31 300.306L1063.07 265.442C1058.16 256.568 1051.97 248.486 1046.11 240.562C1043.89 237.551 1041.51 234.54 1039.29 231.529L1034.06 224.556C1027.72 215.999 1021.07 207.124 1013.46 199.359L985.72 168.774L955.447 141.199C907.421 100.789 862.248 71.7882 817.392 52.4545C761.758 27.5743 710.245 12.5194 659.683 6.33892L639.395 3.32793C634.957 2.69404 630.36 2.53557 625.764 2.37709C623.386 2.37709 621.009 2.21862 618.631 2.06015L577.421 0L536.527 2.06015C534.15 2.21862 531.772 2.37709 529.553 2.37709C524.957 2.53557 520.519 2.85251 515.922 3.32793L495.634 6.33892C445.231 12.5194 393.559 27.5743 337.925 52.4545C293.069 71.7882 247.896 100.789 199.87 141.199L169.28 168.932L141.859 199.042C134.092 206.966 127.594 215.84 121.095 224.398L115.865 231.371C113.646 234.382 111.427 237.392 109.049 240.403C103.184 248.169 97.0029 256.251 92.0893 265.125L70.8501 300.306C66.5706 308.705 62.4496 317.263 58.3285 325.662L52.781 337.072C46.4409 349.274 41.6859 362.269 36.9308 375.422C35.5043 379.86 33.7608 384.297 32.1758 388.576C29.0058 396.816 25.8357 405.374 23.7752 414.248C9.66859 460.998 1.90202 514.245 0.158501 576.842H0C1.74352 639.597 9.51009 692.844 23.6167 739.593C25.6772 748.468 28.8473 757.025 32.0173 765.266C33.7608 769.703 35.3458 773.982 37.0893 779.211C41.5274 791.731 46.2824 804.726 52.6225 816.77L58.3285 828.497C62.2911 836.896 66.4121 845.295 70.8501 853.852L92.0893 888.716C97.0029 897.591 103.184 905.673 109.049 913.597C111.268 916.608 113.646 919.619 115.865 922.63L121.095 929.602C127.435 938.16 134.092 947.034 141.7 954.799L169.438 985.226L199.712 1012.8C247.738 1053.21 292.911 1082.21 337.767 1101.55C393.401 1126.43 444.914 1141.48 495.475 1147.66L515.764 1150.67C520.202 1151.31 524.798 1151.46 529.236 1151.62C531.614 1151.62 533.991 1151.78 536.527 1151.94L577.738 1154L618.631 1151.94C621.009 1151.94 623.386 1151.62 625.764 1151.62C630.202 1151.46 634.798 1151.15 639.236 1150.67L659.524 1147.66C709.928 1141.48 761.599 1126.43 817.233 1101.55C862.089 1082.21 907.262 1053.21 955.288 1012.8L985.879 984.909L1013.3 954.799C1021.07 946.876 1027.56 938.001 1034.06 929.444L1039.29 922.471C1041.51 919.46 1043.73 916.449 1046.11 913.438C1051.97 905.673 1058.16 897.591 1063.07 888.716L1084.31 853.535C1088.59 845.295 1092.55 836.737 1096.67 828.338L1102.22 816.77C1108.56 804.567 1113.31 791.572 1118.07 778.419C1119.5 773.982 1121.24 769.545 1122.82 765.266C1125.99 757.025 1129.16 748.468 1131.22 739.593C1145.33 692.844 1153.1 639.597 1154.84 577L1155 577.317ZM1124.41 738.008C1122.51 746.408 1119.34 754.807 1116.17 762.889C1114.42 767.326 1112.84 771.922 1111.09 776.993C1106.66 789.354 1102.06 802.032 1095.88 813.917L1091.44 823.267L1036.28 796.485L1034.7 799.654C1033.43 802.19 1032.16 804.884 1031.05 807.42C1028.83 812.015 1026.61 816.77 1024.39 821.048L1009.97 844.661L1049.12 868.59L1066.08 840.699L1044.84 828.972L1041.35 835.311L1056.09 843.393L1046.74 858.765L1019.8 842.284L1030.58 824.535C1032.95 819.939 1035.33 815.185 1037.55 810.431C1038.18 809.004 1038.98 807.42 1039.61 805.993L1088.27 829.764C1084.94 836.737 1081.61 843.868 1078.13 850.524L1056.89 885.547L1059.9 887.448L1056.73 885.705C1051.97 894.104 1046.11 902.028 1040.24 909.635C1037.87 912.646 1035.65 915.657 1033.43 918.668L1028.2 925.641C1022.02 934.04 1015.52 942.756 1008.07 950.362L1001.1 957.969L955.764 916.608L937.378 936.892L916.931 955.592L947.839 989.505L971.931 967.636L954.813 950.521L949.741 955.592L961.628 967.477L948.473 979.521L927.233 956.226L942.767 942.122L956.556 926.908L996.657 963.357L981.124 980.472L950.85 1008.05C925.648 1029.28 901.081 1047.19 877.147 1062.4L845.13 1009.79L821.671 1024.05C817.233 1026.43 812.637 1028.65 808.04 1030.71C805.346 1031.98 802.81 1033.24 800.115 1034.51L796.945 1036.1L817.075 1077.3L846.398 1063.04L834.827 1041.8L828.487 1045.29L836.571 1060.03L820.562 1067.79L806.772 1039.42C808.357 1038.63 809.942 1038 811.369 1037.21C815.965 1034.99 820.72 1032.77 825.476 1030.23L843.069 1019.46L871.441 1066.05C852.421 1077.62 833.559 1087.6 814.856 1095.68C785.058 1108.99 756.527 1119.29 728.79 1127.06L712.939 1067.47L703.112 1070.01C690.115 1073.5 676.484 1076.98 663.012 1078.41L659.207 1078.88L666.816 1124.37L670.461 1123.73C673.314 1123.26 676.167 1122.78 679.02 1122.46C684.409 1121.67 690.115 1120.88 695.663 1119.29L698.833 1118.34L693.761 1095.05L686.787 1096.47L690.432 1113.11C686.47 1114.06 682.349 1114.54 678.069 1115.17C676.326 1115.49 674.582 1115.65 672.68 1115.97L667.45 1085.06C680.288 1083.32 692.81 1079.99 704.856 1076.82L707.867 1076.03L721.974 1128.64C700.735 1134.19 679.971 1138.31 659.207 1140.85L639.078 1143.86C634.798 1144.33 630.519 1144.65 626.239 1144.81C623.862 1144.81 621.326 1144.97 618.948 1145.13L578.372 1147.19L567.911 1146.71L569.337 1085.54L566.009 1085.22C560.144 1084.75 554.279 1084.59 548.415 1084.27C538.429 1083.95 528.127 1083.48 518.141 1081.89L514.496 1081.26L509.107 1126.74L512.435 1127.38C519.251 1128.64 526.066 1128.96 532.723 1129.28L541.599 1129.75L543.343 1105.82L536.21 1105.35L534.942 1122.31H533.04C527.493 1121.99 522.262 1121.67 517.032 1120.88L520.677 1089.5C529.87 1090.61 539.063 1091.09 548.098 1091.4C552.695 1091.56 557.291 1091.72 562.046 1092.04L560.778 1146.23L537.478 1145.13C535.101 1144.97 532.565 1144.81 530.187 1144.81C525.908 1144.65 521.628 1144.49 517.349 1143.86L497.061 1140.85C467.896 1137.2 438.256 1130.55 407.824 1120.88L426.369 1062.88L423.199 1061.61C417.493 1059.55 411.945 1057.49 406.239 1055.43C396.729 1051.94 387.378 1048.62 378.026 1044.81L374.856 1043.54L356.787 1085.54L360.115 1086.97C365.187 1089.18 370.418 1091.09 375.648 1092.99C378.343 1093.94 381.037 1094.89 383.732 1096L387.061 1097.27L395.461 1074.76L388.804 1072.23L382.939 1088.08C381.354 1087.44 379.611 1086.97 378.026 1086.33C374.063 1084.91 370.101 1083.48 366.138 1081.89L378.501 1052.89C386.902 1056.06 395.303 1059.23 403.703 1062.24C408.3 1063.83 412.896 1065.57 417.334 1067.32L400.85 1118.82C381.513 1112.32 361.7 1104.56 341.254 1095.52C314.942 1084.11 288.473 1069.38 261.369 1050.83L295.447 1000.6L251.383 967.636L222.219 1002.98L248.213 1022.47L262.637 1003.29L256.931 999.013L246.787 1012.48L232.522 1001.71L252.651 977.461L285.778 1002.34L255.504 1046.87C238.862 1035.3 222.061 1022.31 204.942 1007.89L174.986 980.631L147.406 950.204C145.029 947.827 142.968 945.133 140.749 942.597L187.666 903.771L154.697 859.716L116.816 885.547L136.311 911.695L155.648 897.274L151.369 891.569L137.738 901.711L127.118 887.448L153.271 869.7L178.156 902.82L136.47 937.209C133.458 933.406 130.447 929.444 127.594 925.641L122.363 918.668C120.144 915.657 117.767 912.487 115.548 909.476C109.841 901.87 103.818 893.946 99.0634 885.547L95.8934 887.29L98.9049 885.388L77.8242 850.524C73.5447 842.284 69.5821 833.885 65.6196 825.486L59.9135 813.6C58.3285 810.589 57.0605 807.42 55.7925 804.409L111.744 780.479L110.475 777.31C106.83 768.118 103.501 758.768 100.014 749.419C97.9539 743.714 95.8934 737.85 93.6743 732.145L92.4063 728.976L48.8184 742.921L59.9135 773.506L82.5792 765.107L80.0432 758.452L64.1931 764.315L58.0115 747.517L88.1268 737.85C89.8703 742.446 91.6138 747.2 93.1988 751.954C96.2104 760.195 99.2219 768.594 102.392 776.676L52.6225 797.911C49.7694 790.78 47.0749 783.649 44.3804 776.359C42.7954 771.763 41.2104 767.326 39.4669 762.889C36.4553 754.807 33.1268 746.408 31.2248 738.008L27.7378 738.801L31.2248 737.692C22.9827 710.276 16.9597 680.483 12.9971 647.996L73.7032 640.865L73.0692 637.22C71.4841 627.236 71.1671 616.935 70.6916 606.951C70.5331 601.088 70.2161 595.224 69.7406 589.519L69.4236 586.191L23.6167 587.301L25.2017 619.788L49.2939 618.044L48.8184 610.913L32.0173 612.023L31.0663 594.115L62.6081 593.323C62.9251 597.918 63.0836 602.514 63.2421 607.11C63.5591 616.143 63.8761 625.334 65.1441 634.526L11.7291 640.865C9.51009 620.739 8.08357 599.503 7.44957 577.158C8.40058 544.196 10.9366 514.086 15.3746 486.037L76.0807 496.179L76.5562 492.375C77.9827 478.905 81.4697 465.435 84.9568 452.282L87.4928 442.298L43.1124 430.413L35.0288 461.949L58.6455 467.178L60.2305 460.205L43.7464 456.561L48.1844 439.129L78.6167 447.211L77.8242 450.38C74.6542 462.424 71.3256 474.943 69.7406 487.621L16.3256 478.747C19.9712 456.719 24.7262 435.959 30.5908 416.467L27.1037 415.358L30.5908 416.15C32.4928 407.751 35.6628 399.352 38.8329 391.27C40.5764 386.832 42.1614 382.237 43.9049 377.324C48.3429 364.963 52.9395 352.127 59.121 340.4L63.5591 331.05L118.718 357.99L120.303 354.821C121.571 352.285 122.68 349.75 123.948 347.214C126.167 342.46 128.386 337.864 130.764 333.427L145.187 309.815L106.037 285.885L89.2363 313.776L110.475 325.503L113.963 319.165L99.2219 311.082L108.415 295.711L135.36 312.192L124.582 329.941C122.046 334.536 119.827 339.449 117.608 344.203C116.974 345.629 116.182 347.056 115.548 348.482L66.8876 324.711C70.2161 317.738 73.5447 310.607 77.0317 303.951L98.2709 268.929L95.2594 267.027L98.4294 268.77C103.184 260.371 109.049 252.447 114.914 244.841C117.291 241.83 119.51 238.819 121.729 235.808L126.96 228.835C133.141 220.436 139.64 211.72 147.089 204.113L154.063 196.506L199.395 237.868L217.781 217.583L238.386 198.884L207.478 164.97L183.386 186.84L200.504 203.955L205.576 198.884L193.689 186.998L206.844 174.954L228.084 198.25L212.55 212.354L198.761 227.567L158.66 191.118L174.193 174.003L204.467 146.429C229.669 125.194 254.236 107.286 278.17 92.0728L310.187 144.686L333.646 130.423C338.084 128.046 342.68 125.828 347.277 123.609C349.971 122.341 352.507 121.073 355.202 119.806L358.372 118.221L338.242 77.0179L308.919 91.2804L320.49 112.516L326.83 109.029L318.746 94.2914L334.755 86.5262L348.545 114.893C346.96 115.685 345.533 116.319 343.948 117.112C339.193 119.33 334.597 121.549 329.841 124.084L312.248 134.702L283.876 88.111C302.896 76.5424 321.758 66.5586 340.461 58.4765C370.259 45.1648 398.79 34.864 426.527 27.0989L442.378 86.6847L452.205 84.1491C465.202 80.6627 478.833 77.1763 492.305 75.7501L496.109 75.2747L488.501 29.7929L484.856 30.4268C482.003 30.9022 479.15 31.3776 476.297 31.6946C470.908 32.487 465.202 33.2793 459.813 34.864L456.643 35.8149L461.715 59.1104L468.689 57.6842L465.043 41.0445C469.006 40.0937 473.127 39.6182 477.406 38.9843C479.15 38.6674 481.052 38.5089 482.795 38.192L488.026 69.0942C475.187 70.8374 462.666 74.1653 450.62 77.3348L447.608 78.1272L433.501 25.5141C454.741 19.9676 475.504 15.8473 496.268 13.3117L516.398 10.3007C520.677 9.66685 524.957 9.50838 529.395 9.3499C531.772 9.3499 534.15 9.19143 536.527 9.03296L577.104 6.97281L587.565 7.44823L586.138 68.6188L589.467 68.9357C595.331 69.4111 601.196 69.5696 606.902 69.8866C616.888 70.2035 627.19 70.6789 637.176 72.2637L640.821 72.8976L646.21 27.4158L642.882 26.7819C636.066 25.5141 629.092 25.1972 622.435 24.8803L613.718 24.4048L611.974 48.3342L619.107 48.8097L620.375 31.8531H622.118C627.666 32.17 633.055 32.487 638.285 33.2793L634.64 64.657C625.447 63.3892 616.254 63.0722 607.219 62.7553C602.622 62.5968 598.026 62.4383 593.429 62.1214L594.697 7.92365L617.997 9.03296C620.375 9.19143 622.752 9.3499 625.288 9.3499C629.568 9.50838 634.006 9.66685 638.127 10.3007L658.415 13.3117C687.579 16.9566 717.219 23.6125 747.651 33.2793L729.107 91.2804L732.277 92.5482C737.983 94.6084 743.689 96.6685 749.395 98.7286C758.746 102.215 768.256 105.543 777.45 109.188L780.62 110.456L798.689 68.4603L795.36 67.0341C790.288 64.8154 785.058 62.9138 779.827 61.0121C777.133 60.0612 774.28 58.9519 771.585 58.0011L768.256 56.7333L759.856 79.2365L766.513 81.772L772.378 65.9247C773.963 66.5586 775.706 67.1925 777.291 67.6679C781.254 69.0942 785.216 70.5205 789.02 72.1052L776.657 101.106C768.415 97.9363 760.014 94.7668 751.614 91.7558C747.017 90.0126 742.421 88.4279 737.824 86.6847L754.308 35.181C773.646 41.6784 793.458 49.4436 813.905 58.4765C840.216 69.8866 866.686 84.6246 893.79 103.166L859.712 153.402L903.775 186.364L932.939 151.025L906.945 131.533L892.522 150.708L898.228 154.987L908.372 141.516L922.637 152.292L902.507 176.539L869.38 151.659L899.654 107.128C916.138 118.696 933.098 131.691 950.216 146.112L980.173 173.369L1007.75 203.796C1010.13 206.173 1012.19 208.867 1014.41 211.403L967.493 250.229L1000.46 294.284L1038.5 268.453L1019.01 242.305L999.669 256.726L1003.95 262.431L1017.58 252.289L1028.36 266.551L1002.2 284.3L977.32 251.18L1019.01 216.633C1022.02 220.436 1025.03 224.398 1027.88 228.201L1033.11 235.174C1035.33 238.185 1037.71 241.354 1039.93 244.365C1045.63 251.972 1051.66 259.896 1056.41 268.295L1059.58 266.551L1056.57 268.453L1077.65 303.317C1081.93 311.558 1086.05 320.115 1090.01 328.514L1095.56 340.083C1097.15 343.094 1098.41 346.263 1099.68 349.274L1043.73 373.204L1045 376.373C1048.65 385.565 1051.97 394.915 1055.46 404.264C1057.52 409.97 1059.58 415.833 1061.8 421.538L1063.07 424.707L1106.66 410.762L1095.56 380.177L1072.9 388.576L1075.43 395.232L1091.28 389.368L1097.46 406.166L1067.35 415.833C1065.61 411.237 1064.02 406.483 1062.28 401.887C1059.27 393.488 1056.25 385.248 1053.08 377.007L1102.85 355.772C1105.71 362.903 1108.56 370.034 1111.09 377.324C1112.68 381.92 1114.27 386.357 1116.01 390.794C1119.02 398.876 1122.35 407.275 1124.25 415.675L1127.74 414.882L1124.25 415.991C1132.49 443.407 1138.52 473.2 1142.48 505.687L1081.77 512.818L1082.41 516.463C1083.99 526.447 1084.31 536.748 1084.78 546.89C1084.94 552.754 1085.26 558.459 1085.73 564.322L1086.05 567.65L1131.86 566.541L1130.27 534.054L1106.18 535.797L1106.66 542.928L1123.46 541.819L1124.41 559.726L1092.87 560.519C1092.55 555.923 1092.39 551.327 1092.23 546.732C1091.92 537.699 1091.6 528.349 1090.33 519.157L1143.75 512.818C1145.97 532.945 1147.39 554.18 1148.03 576.525C1147.07 609.487 1144.54 639.597 1140.1 667.805L1079.39 657.663L1078.92 661.466C1077.49 674.936 1073.85 688.406 1070.52 701.56L1067.98 711.544L1112.36 723.429L1120.45 691.893L1096.83 686.663L1095.24 693.636L1111.73 697.281L1107.29 714.555L1076.86 706.472L1077.65 703.461C1080.82 691.417 1084.15 678.898 1085.73 666.22L1139.15 675.095C1135.5 697.122 1130.75 717.882 1124.88 737.375L1128.37 738.484L1124.88 737.692L1124.41 738.008Z" fill="#EC00C5"/>
<path d="M1049.92 715.658C1060.69 680.003 1067.02 640.545 1069.4 592.371L1123.4 593.639C1123.08 598.393 1122.92 603.305 1122.77 608.059C1122.45 617.884 1121.97 628.026 1120.71 637.851L1089.51 634.206C1090.14 629.136 1090.46 624.223 1090.62 619.311V617.884L1107.4 619.152L1107.88 612.021L1083.81 610.278L1083.33 618.994C1083.02 625.174 1082.86 630.879 1081.59 636.742L1080.8 640.545L1126.57 645.933L1127.04 642.447C1128.78 631.196 1129.26 619.628 1129.73 608.376C1129.89 602.355 1130.21 596.491 1130.68 590.47L1131 586.666L1069.71 585.24C1069.71 582.388 1070.03 579.852 1070.03 577C1068.45 528.351 1063.38 488.575 1054.04 453.079L1105.98 439.134L1106.61 441.828C1110.1 454.981 1113.58 468.609 1115.48 482.395L1084.28 487.625C1084.12 486.04 1083.81 484.614 1083.65 483.029C1083.17 479.226 1082.54 475.264 1081.75 471.461L1098.06 467.975L1096.64 461.002L1072.88 466.073L1073.99 469.718C1075.26 474.313 1075.89 479.067 1076.68 483.98C1077 486.832 1077.47 489.685 1077.95 492.379L1078.58 495.865L1123.56 488.259L1123.24 484.931C1121.5 469.559 1117.54 454.505 1113.74 439.926L1111.2 430.26L1052.14 446.106C1051.34 443.412 1050.71 440.719 1049.92 438.025C1048.34 430.577 1045.64 423.446 1042.95 416.632C1041.53 412.828 1039.94 408.867 1038.68 404.905L1038.2 403.479C1034.56 393.02 1030.6 382.244 1025.37 372.261C1023.31 367.982 1021.26 363.704 1019.2 359.425C1016.19 353.245 1013.18 346.906 1010.01 340.568L999.876 323.928L1046.12 295.721L1057.52 314.579C1060.05 319.491 1062.59 324.562 1064.96 329.633C1065.75 331.218 1066.55 332.961 1067.34 334.546L1038.99 348.332L1031.87 333.595L1046.91 325.355L1043.43 319.016L1022.36 330.426L1035.67 357.84L1076.84 337.715L1075.26 334.546C1073.99 331.852 1072.56 329.158 1071.3 326.464C1068.92 321.393 1066.39 316.164 1063.7 311.093L1048.34 285.896L996.076 317.907L991.8 310.776C987.841 303.328 982.773 296.672 977.864 290.334C975.805 287.64 973.747 284.787 971.688 281.935C969.946 279.716 968.362 277.498 966.779 275.279C961.553 268.148 956.168 260.859 949.834 254.52L926.08 228.373L911.669 215.379L948.092 175.287L964.403 190.024L979.448 206.505L956.168 227.739L945.083 215.537L957.119 203.494L952.051 198.423L935.106 215.379L955.535 237.881L989.424 206.98L969.312 184.953L947.458 165.145L906.126 210.466L899.95 204.92C862.893 173.86 829.479 151.517 796.381 135.511L819.977 87.1791L824.886 89.5561C829.954 91.9331 834.863 94.3101 839.614 96.8455L858.617 108.414L842.148 135.353L828.212 126.796L836.447 111.9L830.112 108.414L818.552 129.331L844.523 145.178L868.436 106.037L843.098 90.6653C838.189 87.9714 832.963 85.5944 827.895 83.0589C825.203 81.7912 822.511 80.5235 819.819 79.0973L816.651 77.5126L789.888 132.501C787.355 131.391 784.821 130.124 782.129 129.014C739.846 110.157 700.731 98.4302 663.199 92.25L672.225 38.5297C686.003 40.4313 699.622 43.9176 712.924 47.4039L715.458 48.0378L707.382 78.4634L691.546 74.3432L695.188 57.7042L688.22 56.1196L683.152 79.5726L712.608 87.1791L724.485 42.8084L714.983 40.2729C700.414 36.4697 685.369 32.508 670.008 30.7649L666.683 30.4479L656.548 90.9823C653.697 90.6653 651.005 89.873 648.154 89.5561L631.051 86.8621C627.251 86.3867 623.45 86.2283 619.649 86.0698C617.591 86.0698 615.532 85.9113 613.315 85.7529L578 84.0097L543.002 85.7529C540.943 85.7529 538.885 85.9113 536.826 86.0698C533.025 86.0698 529.225 86.3867 525.266 86.8621L523.365 87.1791L517.031 33.4588C526.849 32.1911 536.984 31.7157 546.803 31.3987C551.554 31.2403 556.463 31.0818 561.214 30.7649L562.005 62.2998L545.536 63.0921L544.427 46.1362L537.301 46.6116L538.885 70.54L569.29 68.9554L568.182 23L564.381 23.3169C558.363 23.7923 552.504 23.9508 546.486 24.2677C535.401 24.7431 523.84 25.2185 512.438 26.9617L508.954 27.4371L516.08 88.4468L507.846 89.7145C469.839 94.3101 430.248 105.403 387.807 123.151L366.27 72.6001C375.93 68.7969 385.59 65.3106 395.25 61.8244C399.368 60.2397 403.643 58.8135 407.761 57.2288L417.421 87.1791L402.06 92.8839L396.2 77.0372L389.549 79.5726L397.942 102.075L426.448 91.6161L412.512 47.8793L409.028 49.147C403.643 51.0486 398.418 53.1087 393.033 55.0103C382.106 58.972 371.179 62.9336 360.411 67.2122L356.927 68.6384L381.314 125.845C378.781 126.954 376.247 127.905 373.555 129.014C339.19 143.593 305.301 164.828 267.769 195.095L232.929 152.943L268.402 126.32L286.139 152.467L272.995 162.292L262.86 148.664L257.159 152.943L271.57 172.276L295.957 154.052L270.144 116.178L222.636 151.675L262.226 199.69C260.009 201.434 257.95 203.177 255.733 204.92L229.604 228.69L206.324 254.52C199.832 261.017 194.447 268.307 189.221 275.438C187.638 277.656 185.896 279.875 184.154 282.252C182.095 285.104 180.036 287.798 177.978 290.492C176.077 292.869 174.335 295.404 172.435 297.94L127.619 267.514L154.223 232.018L178.453 252.143L168.634 265.296L155.174 255.154L150.898 260.859L170.218 275.279L188.43 250.875L153.115 221.717L117.642 269.257L168.793 303.962C167.209 306.339 165.625 308.716 164.359 311.093L146.147 341.201C142.98 347.382 139.971 353.562 137.12 359.9C135.062 364.179 133.003 368.458 130.944 372.578C125.56 382.561 121.759 393.178 118.117 403.479L117.483 405.38C116.216 409.342 114.633 413.145 113.208 417.107C112.416 419.167 111.624 421.386 110.832 423.604L59.2062 407.124C60.7898 403.003 62.2151 398.883 63.7987 394.605C67.2826 384.938 70.7666 375.113 74.5673 365.447L103.548 377.807C102.122 381.452 100.855 385.097 99.4301 388.741L97.8465 393.178L82.0103 387.157L79.4765 393.812L101.964 402.211L103.231 398.883C104.181 396.189 105.131 393.654 106.081 390.96C107.823 386.364 109.407 381.61 111.307 377.173L112.733 373.845L70.4499 355.78L69.0246 359.267C64.7489 370.042 60.7898 381.135 56.8308 392.069C54.9304 397.457 53.0301 402.686 50.9714 408.074L49.7045 411.561L108.298 430.26C107.507 432.954 106.556 435.489 106.081 438.342C95.3127 473.997 88.9782 513.613 86.6028 561.629L32.6014 560.361C32.9181 555.607 33.0765 550.694 33.2348 545.94C33.5515 536.116 34.0266 525.974 35.2935 516.149L66.4908 519.793C65.699 524.864 65.5407 529.935 65.3823 534.848V536.115L48.5959 534.848L48.1208 541.979L72.1919 543.722L72.667 535.165C72.9837 528.984 73.142 523.121 74.4089 517.258L75.2007 513.455L29.4341 508.067L28.959 511.553C27.2171 522.804 26.742 534.372 26.2669 545.624C26.1085 551.645 25.7918 557.508 25.3167 563.53L25 567.333L86.2861 568.76C86.2861 571.454 85.9694 574.148 85.9694 577C87.553 625.491 92.6206 665.266 101.964 700.921L50.0212 714.866L49.3877 712.331C45.9038 699.019 42.2615 685.391 40.5195 671.605L71.7168 666.375C71.8751 667.96 72.1919 669.386 72.3502 670.971C72.8253 674.774 73.4588 678.736 74.2506 682.539L57.9393 686.025L59.3646 692.998L83.1188 687.927L82.0103 684.282C80.7434 679.686 80.11 674.932 79.3182 670.02C79.0014 667.168 78.5263 664.315 78.0513 661.621L77.4178 658.135L32.443 665.741L32.7597 669.069C34.5017 684.44 38.4608 699.653 42.2615 714.232L44.7952 723.74L103.864 707.893C104.656 710.587 105.29 713.281 106.081 715.975C107.665 723.423 110.357 730.396 113.049 737.368C114.475 741.33 116.058 745.133 117.325 749.253L117.958 750.996C121.601 761.297 125.401 772.073 130.786 781.898C132.845 786.176 134.903 790.455 136.962 794.733C139.971 800.914 142.98 807.252 146.147 813.591L156.282 830.23L110.04 858.437L98.6383 839.579C96.1045 834.667 93.5707 829.596 91.1953 824.525C90.4035 822.94 89.6117 821.197 88.8199 819.613L117.167 805.826L124.293 820.563L109.249 828.804L112.733 835.142L133.636 823.733L120.334 796.318L79.1598 816.443L80.7434 819.613C82.0103 822.307 83.4356 825 84.7025 827.694C87.0779 832.765 89.6117 837.995 92.3038 843.066L107.665 868.262L159.924 836.252L164.2 843.383C168.159 850.831 173.227 857.486 178.136 863.825C180.195 866.519 182.253 869.371 184.312 872.224C186.054 874.442 187.638 876.661 189.221 878.879C194.447 886.01 199.832 893.3 206.166 899.638L229.92 925.785L244.331 938.78L207.908 978.872L191.597 964.134L176.552 947.654L199.832 926.419L210.917 938.621L198.881 950.665L203.949 955.736L220.894 938.78L200.465 916.277L166.576 947.178L186.688 969.205L208.542 989.014L249.874 943.692L256.05 949.238C293.107 980.298 326.521 1002.64 359.619 1018.65L336.023 1066.98C334.439 1066.19 332.697 1065.39 331.114 1064.6C326.046 1062.23 320.979 1059.85 316.228 1057.31L297.224 1045.74L313.694 1018.81L327.788 1027.36L319.553 1042.26L325.888 1045.74L337.448 1024.83L311.477 1008.98L287.564 1048.12L312.902 1063.49C317.97 1066.19 323.037 1068.56 328.105 1071.1C330.797 1072.37 333.489 1073.63 336.181 1075.06L339.349 1076.65L366.112 1021.66C368.646 1022.77 371.179 1024.03 373.871 1025.14C416.154 1044 455.111 1055.73 492.801 1061.91L483.775 1115.63C469.997 1113.73 456.378 1110.24 443.076 1106.75L440.542 1106.12L448.618 1075.69L464.454 1079.82L460.812 1096.45L467.78 1098.04L472.848 1074.59L443.392 1066.98L431.515 1111.35L441.017 1113.89C455.586 1117.69 470.631 1121.65 486.15 1123.39L489.476 1123.71L499.611 1063.18C502.303 1063.49 505.153 1064.13 507.846 1064.6L525.107 1067.3C528.908 1067.77 532.708 1067.93 536.509 1068.09C538.568 1068.09 540.785 1068.09 542.844 1068.41L578.158 1070.15L613.156 1068.25C615.215 1068.25 617.274 1068.09 619.491 1067.93C623.292 1067.93 627.092 1067.61 630.893 1067.14L632.793 1066.82L639.128 1120.54C629.309 1121.81 619.174 1122.28 609.356 1122.6C604.605 1122.76 599.696 1122.92 594.945 1123.23L594.153 1091.7L610.464 1090.91L611.573 1107.86L618.699 1107.39L617.115 1083.46L586.71 1085.04L587.818 1131L591.619 1130.68C597.637 1130.21 603.496 1130.05 609.514 1129.73C620.599 1129.26 632.16 1128.78 643.562 1127.04L647.046 1126.56L639.92 1065.55L648.313 1064.29C686.32 1059.69 725.752 1048.6 768.193 1030.85L789.73 1081.4C780.228 1085.2 770.568 1088.69 760.908 1092.18C756.632 1093.76 752.357 1095.34 748.239 1096.77L738.579 1066.82L753.94 1061.12L759.8 1076.96L766.451 1074.43L758.058 1051.92L729.552 1062.38L743.488 1106.12L746.972 1104.85C752.357 1102.79 757.741 1100.89 763.125 1098.99C774.052 1095.03 784.821 1091.07 795.589 1086.79L799.073 1085.36L774.686 1028.15C777.219 1027.05 779.753 1026.09 782.445 1024.99C816.81 1010.41 850.699 989.172 888.231 958.905L923.071 1001.06L887.598 1027.68L869.861 1001.53L883.005 991.708L893.14 1005.34L898.841 1001.06L884.43 981.724L860.043 999.948L885.856 1037.82L933.364 1002.32L893.774 954.309C895.991 952.566 898.05 950.823 900.267 949.08L926.396 925.31L949.676 899.48C956.168 892.983 961.553 885.693 966.779 878.562C968.362 876.344 970.104 874.125 971.846 871.748C973.905 868.896 975.964 866.202 978.022 863.508C979.923 861.131 981.665 858.595 983.565 856.06L1028.38 886.486L1001.78 921.982L977.547 901.857L987.366 888.704L1000.83 898.846L1005.1 893.141L985.782 878.721L967.57 903.125L1002.89 932.282L1038.36 884.742L987.207 850.038C988.791 847.661 990.375 845.284 991.642 842.907L1009.85 812.799C1013.02 806.618 1016.03 800.438 1018.88 794.099C1020.94 789.821 1023 785.542 1025.06 781.422C1030.44 771.28 1034.4 760.504 1038.04 750.046L1038.52 748.619C1039.78 744.658 1041.37 740.855 1042.79 737.051C1043.58 734.833 1044.38 732.614 1045.17 730.396L1096.79 746.876C1095.21 750.996 1093.79 755.117 1092.36 759.237C1088.88 769.062 1085.23 778.728 1081.59 788.395L1052.61 776.034C1054.04 772.389 1055.3 768.745 1056.73 765.1C1057.2 763.674 1057.84 762.089 1058.31 760.663L1074.15 766.526L1076.68 759.871L1054.19 751.472L1052.93 754.8C1051.98 757.494 1051.03 760.029 1050.08 762.723C1048.49 767.319 1046.75 772.073 1044.85 776.51L1043.43 779.837L1085.71 797.903L1087.13 794.416C1091.41 783.641 1095.37 772.548 1099.49 761.614C1101.39 756.384 1103.29 750.996 1105.19 745.767L1106.45 742.281L1047.86 723.582C1048.65 720.888 1049.6 718.352 1050.08 715.5L1049.92 715.658ZM1036.3 734.516C1034.72 738.478 1033.29 742.439 1031.87 746.401L1031.39 747.669C1027.75 757.969 1023.95 768.428 1018.72 778.253C1016.66 782.531 1014.6 786.81 1012.55 791.089C1009.54 797.269 1006.69 803.449 1003.68 809.312L985.465 839.104L988.474 841.006L985.307 839.263C981.506 846.235 976.597 852.732 971.846 858.912C969.788 861.765 967.57 864.459 965.512 867.311C963.77 869.53 962.186 871.748 960.444 874.125C955.377 881.098 950.151 888.229 943.975 894.409L920.695 920.081L894.882 943.534C853.075 978.555 816.176 1002.32 778.803 1018.17C731.453 1039.25 688.062 1051.93 646.571 1056.84L629.468 1059.53C625.984 1060.01 622.341 1060.17 618.857 1060.32C616.64 1060.32 614.423 1060.48 612.365 1060.64L577.842 1062.38L543.002 1060.64C540.785 1060.64 538.726 1060.48 536.509 1060.32C532.867 1060.32 529.383 1060.01 525.899 1059.53L508.637 1056.84C466.988 1051.93 423.755 1039.25 376.405 1018.17C339.19 1002.17 302.292 978.555 260.326 943.534L234.83 920.397L211.234 894.409C205.216 888.387 199.832 881.256 194.764 874.284C193.022 872.065 191.438 869.688 189.855 867.628C187.796 864.776 185.737 861.923 183.52 859.229C178.769 852.891 173.702 846.393 170.06 839.579L166.892 841.323L169.901 839.421L151.848 809.788C148.681 803.766 145.83 797.427 142.821 791.406C140.763 787.127 138.704 782.848 136.487 778.411C131.419 768.903 127.619 758.444 124.135 748.302L123.501 746.718C122.234 742.598 120.651 738.636 119.067 734.674C116.375 727.702 113.841 721.046 112.257 714.074L108.773 714.866L112.257 713.757C100.539 674.932 94.2042 631.513 92.4622 577C94.2042 522.487 100.539 479.067 112.257 440.243L108.773 439.134L112.257 439.926C113.683 432.954 116.216 426.298 119.067 419.326C120.651 415.364 122.234 411.244 123.501 407.282L124.135 405.539C127.777 395.397 131.419 385.097 136.645 375.43C138.704 371.152 140.763 366.873 142.821 362.594C145.83 356.414 148.681 350.234 151.69 344.371L169.901 314.579L166.892 312.677L170.06 314.42C173.86 307.448 178.769 300.951 183.52 294.771C185.579 291.918 187.796 289.224 189.855 286.372C191.597 284.153 193.18 281.935 194.922 279.558C199.99 272.585 205.216 265.454 211.392 259.274L234.671 233.602L260.484 210.149C302.292 175.128 339.19 151.358 376.564 135.511C424.072 114.435 467.305 101.758 508.796 96.8455L508.321 93.0423L508.954 96.6871L526.057 93.9931C529.7 93.5177 533.184 93.3593 536.826 93.2008C539.043 93.2008 541.102 93.0423 543.16 92.8839L577.683 91.1407L612.523 92.8839C614.74 92.8839 616.799 93.0423 619.016 93.2008C622.658 93.2008 626.142 93.5177 629.626 93.9931L646.888 96.6871L647.521 93.0423L647.046 96.8455C688.695 101.758 731.928 114.435 779.278 135.511C816.493 151.517 853.391 175.128 895.357 210.149L920.854 233.285L944.45 259.274C950.467 265.296 955.852 272.427 960.919 279.399C962.661 281.618 964.245 283.995 965.828 286.055C967.887 288.907 969.946 291.76 972.163 294.454C976.914 300.792 981.981 307.289 985.624 314.104L988.791 312.36L985.782 314.262L1003.84 343.895C1007 349.917 1009.85 356.256 1012.86 362.277C1014.92 366.556 1016.98 370.835 1019.2 375.272C1024.42 384.938 1028.06 395.397 1031.71 405.697L1032.18 406.965C1033.45 410.927 1035.03 415.047 1036.62 419.009C1039.31 425.981 1041.84 432.637 1043.43 439.609L1046.91 438.817L1043.43 439.926C1055.14 478.592 1061.48 522.17 1063.22 576.683C1061.48 631.196 1055.14 674.615 1043.43 713.44L1046.91 714.549L1043.43 713.757C1042 720.729 1039.31 727.385 1036.62 734.357L1036.3 734.516Z" fill="#EC00C5"/>
</svg>
