<svg width="197" height="1046" viewBox="0 0 197 1046" fill="none" xmlns="http://www.w3.org/2000/svg">
<path d="M197 444.83C195.182 379.576 187.086 324.068 172.381 275.333C170.233 266.082 166.929 257.161 163.624 248.571C161.807 243.945 160.155 239.484 158.337 234.198C153.546 221.147 148.754 207.435 142.145 194.88L136.362 182.82C132.066 173.899 127.936 165.144 123.309 156.058L101.169 119.713C96.047 110.462 89.6031 102.037 83.4899 93.7764C81.1766 90.6376 78.6982 87.4988 76.3851 84.3599L70.9326 77.091C64.3236 68.1702 57.3842 58.9189 49.4534 50.824L20.5388 18.94L-11.0193 -9.80513C-61.0827 -51.9316 -108.172 -82.1636 -154.931 -102.318C-212.925 -128.255 -266.623 -143.949 -319.331 -150.392L-340.479 -153.531C-345.106 -154.192 -349.897 -154.357 -354.689 -154.522C-357.167 -154.522 -359.646 -154.687 -362.124 -154.852L-405.083 -157L-447.711 -154.852C-450.189 -154.687 -452.668 -154.522 -454.981 -154.522C-459.772 -154.357 -464.399 -154.026 -469.19 -153.531L-490.339 -150.392C-542.881 -143.949 -596.745 -128.255 -654.739 -102.318C-701.498 -82.1636 -748.587 -51.9316 -798.65 -9.80513L-830.539 19.1052L-859.123 50.4936C-867.219 58.7536 -873.993 68.0049 -880.768 76.9259L-886.22 84.1947C-888.533 87.3336 -890.846 90.4724 -893.325 93.6112C-899.438 101.706 -905.882 110.131 -911.004 119.383L-933.144 156.058C-937.605 164.813 -941.901 173.734 -946.197 182.49L-951.98 194.384C-958.589 207.105 -963.546 220.651 -968.502 234.363C-969.989 238.989 -971.807 243.615 -973.459 248.075C-976.764 256.665 -980.068 265.586 -982.216 274.838C-996.921 323.572 -1005.02 379.08 -1006.83 444.335H-1007C-1005.18 509.755 -997.086 565.263 -982.381 613.997C-980.233 623.248 -976.929 632.169 -973.624 640.76C-971.807 645.385 -970.155 649.846 -968.337 655.298C-963.711 668.349 -958.754 681.895 -952.145 694.451L-946.197 706.675C-942.066 715.431 -937.77 724.187 -933.144 733.108L-911.004 769.452C-905.882 778.703 -899.438 787.129 -893.325 795.389C-891.012 798.528 -888.533 801.667 -886.22 804.805L-880.768 812.074C-874.159 820.995 -867.219 830.246 -859.288 838.341L-830.374 870.06L-798.816 898.805C-748.752 940.932 -701.663 971.164 -654.904 991.318C-596.91 1017.26 -543.211 1032.95 -490.504 1039.39L-469.355 1042.53C-464.729 1043.19 -459.938 1043.36 -455.311 1043.52C-452.833 1043.52 -450.355 1043.69 -447.711 1043.85L-404.752 1046L-362.124 1043.85C-359.646 1043.85 -357.167 1043.52 -354.689 1043.52C-350.062 1043.36 -345.271 1043.03 -340.645 1042.53L-319.496 1039.39C-266.954 1032.95 -213.09 1017.26 -155.096 991.318C-108.337 971.164 -61.2479 940.932 -11.1845 898.805L20.7041 869.73L49.2881 838.341C57.3842 830.081 64.1584 820.83 70.9326 811.909L76.3851 804.64C78.6982 801.501 81.0115 798.362 83.4899 795.224C89.6031 787.129 96.047 778.703 101.169 769.452L123.309 732.777C127.77 724.187 131.901 715.266 136.197 706.51L141.98 694.451C148.589 681.73 153.546 668.183 158.502 654.472C159.989 649.846 161.807 645.22 163.459 640.76C166.764 632.169 170.068 623.248 172.216 613.997C186.921 565.263 195.017 509.755 196.835 444.5L197 444.83ZM165.111 612.345C163.129 621.101 159.824 629.857 156.52 638.282C154.702 642.907 153.05 647.698 151.232 652.985C146.606 665.87 141.815 679.087 135.371 691.477L130.744 701.224L73.2458 673.305L71.5936 676.609C70.2717 679.252 68.9501 682.06 67.7935 684.704C65.4803 689.494 63.167 694.451 60.8539 698.911L45.8184 723.526L86.6292 748.471L104.308 719.396L82.168 707.171L78.5331 713.779L93.899 722.204L84.1508 738.229L56.0623 721.048L67.2977 702.545C69.776 697.754 72.2545 692.798 74.5676 687.842C75.2285 686.356 76.0547 684.704 76.7156 683.217L127.44 707.997C123.97 715.266 120.5 722.7 116.865 729.638L94.7252 766.148L97.8645 768.13L94.5599 766.313C89.6031 775.069 83.4897 783.329 77.3765 791.259C74.8981 794.398 72.585 797.536 70.2717 800.675L64.8193 807.944C58.3756 816.7 51.6012 825.786 43.8357 833.716L36.5658 841.645L-10.6888 798.528L-29.855 819.673L-51.1691 839.167L-18.9501 874.521L6.16418 851.723L-11.6802 833.881L-16.9674 839.167L-4.5755 851.557L-18.2892 864.113L-40.4294 839.828L-24.2374 825.125L-9.86273 809.266L31.9395 847.262L15.7473 865.104L-15.8108 893.849C-42.0817 915.986 -67.6917 934.654 -92.6408 950.513L-126.016 895.666L-150.47 910.535C-155.096 913.013 -159.888 915.325 -164.679 917.473C-167.488 918.795 -170.132 920.116 -172.94 921.438L-176.245 923.09L-155.261 966.042L-124.695 951.174L-136.756 929.037L-143.365 932.672L-134.939 948.035L-151.626 956.13L-166.001 926.559C-164.349 925.733 -162.697 925.072 -161.209 924.246C-156.418 921.933 -151.461 919.621 -146.504 916.977L-128.164 905.744L-98.5889 954.313C-118.416 966.373 -138.078 976.78 -157.575 985.206C-188.637 999.083 -218.378 1009.82 -247.292 1017.92L-263.815 955.8L-274.059 958.443C-287.607 962.077 -301.817 965.712 -315.861 967.199L-319.826 967.694L-311.895 1015.11L-308.095 1014.45C-305.121 1013.95 -302.147 1013.46 -299.173 1013.12C-293.555 1012.3 -287.607 1011.47 -281.824 1009.82L-278.52 1008.83L-283.807 984.545L-291.077 986.032L-287.277 1003.38C-291.407 1004.37 -295.703 1004.86 -300.164 1005.53C-301.982 1005.86 -303.799 1006.02 -305.782 1006.35L-311.234 974.137C-297.851 972.32 -284.798 968.851 -272.241 965.547L-269.102 964.721L-254.397 1019.57C-276.537 1025.35 -298.182 1029.65 -319.826 1032.29L-340.81 1035.43C-345.271 1035.92 -349.732 1036.25 -354.193 1036.42C-356.672 1036.42 -359.315 1036.58 -361.794 1036.75L-404.091 1038.9L-414.996 1038.4L-413.509 974.633L-416.979 974.302C-423.092 973.807 -429.206 973.642 -435.319 973.311C-445.728 972.981 -456.468 972.485 -466.877 970.833L-470.677 970.172L-476.295 1017.59L-472.825 1018.25C-465.72 1019.57 -458.616 1019.9 -451.676 1020.23L-442.424 1020.72L-440.606 995.779L-448.041 995.283L-449.363 1012.96H-451.346C-457.129 1012.63 -462.581 1012.3 -468.034 1011.47L-464.233 978.763C-454.65 979.919 -445.067 980.415 -435.649 980.745C-430.858 980.911 -426.066 981.076 -421.11 981.406L-422.431 1037.91L-446.72 1036.75C-449.198 1036.58 -451.841 1036.42 -454.32 1036.42C-458.781 1036.25 -463.242 1036.09 -467.703 1035.43L-488.852 1032.29C-519.254 1028.49 -550.151 1021.55 -581.874 1011.47L-562.543 951.009L-565.847 949.687C-571.795 947.54 -577.578 945.392 -583.526 943.245C-593.44 939.61 -603.188 936.141 -612.937 932.176L-616.241 930.854L-635.077 974.633L-631.607 976.12C-626.32 978.432 -620.867 980.415 -615.415 982.397C-612.606 983.389 -609.797 984.38 -606.989 985.536L-603.519 986.858L-594.762 963.399L-601.701 960.756L-607.815 977.276C-609.467 976.615 -611.284 976.12 -612.937 975.459C-617.067 973.972 -621.198 972.485 -625.329 970.833L-612.441 940.601C-603.684 943.905 -594.927 947.209 -586.17 950.348C-581.379 952 -576.587 953.817 -571.961 955.635L-589.144 1009.33C-609.302 1002.55 -629.955 994.457 -651.269 985.041C-678.696 973.146 -706.289 957.782 -734.543 938.454L-699.019 886.085L-744.952 851.723L-775.354 888.563L-748.257 908.882L-733.221 888.893L-739.169 884.433L-749.744 898.475L-764.614 887.241L-743.63 861.965L-709.098 887.902L-740.656 934.323C-758.005 922.264 -775.519 908.717 -793.363 893.684L-824.591 865.269L-853.34 833.55C-855.818 831.072 -857.966 828.264 -860.28 825.621L-811.373 785.146L-845.74 739.22L-885.229 766.148L-864.906 793.406L-844.748 778.373L-849.209 772.426L-863.419 782.999L-874.489 768.13L-847.227 749.628L-821.286 784.155L-864.741 820.004C-867.88 816.039 -871.019 811.909 -873.993 807.944L-879.446 800.675C-881.759 797.536 -884.237 794.232 -886.55 791.094C-892.499 783.164 -898.777 774.904 -903.734 766.148L-907.038 767.965L-903.899 765.983L-925.874 729.638C-930.335 721.048 -934.466 712.292 -938.597 703.537L-944.545 691.146C-946.197 688.008 -947.519 684.703 -948.841 681.565L-890.516 656.619L-891.838 653.315C-895.638 643.733 -899.108 633.987 -902.743 624.24C-904.89 618.292 -907.038 612.18 -909.352 606.233L-910.673 602.929L-956.11 617.466L-944.545 649.35L-920.917 640.595L-923.561 633.656L-940.084 639.769L-946.527 622.257L-915.134 612.18C-913.317 616.971 -911.5 621.927 -909.847 626.883C-906.708 635.473 -903.569 644.229 -900.264 652.654L-952.145 674.791C-955.119 667.357 -957.928 659.923 -960.737 652.324C-962.389 647.533 -964.041 642.907 -965.859 638.282C-968.998 629.857 -972.468 621.101 -974.451 612.345L-978.085 613.171L-974.451 612.015C-983.042 583.435 -989.321 552.377 -993.451 518.51L-930.17 511.076L-930.831 507.277C-932.483 496.869 -932.814 486.131 -933.309 475.723C-933.475 469.611 -933.805 463.498 -934.301 457.551L-934.631 454.082L-982.381 455.238L-980.729 489.105L-955.615 487.287L-956.11 479.853L-973.624 481.01L-974.616 462.342L-941.736 461.516C-941.405 466.307 -941.24 471.098 -941.075 475.888C-940.744 485.305 -940.414 494.887 -939.092 504.468L-994.773 511.076C-997.086 490.096 -998.573 467.959 -999.234 444.665C-998.243 410.303 -995.599 378.915 -990.973 349.674L-927.692 360.247L-927.196 356.282C-925.709 342.24 -922.074 328.198 -918.439 314.486L-915.795 304.078L-962.059 291.688L-970.485 324.563L-945.866 330.015L-944.214 322.746L-961.398 318.947L-956.771 300.774L-925.048 309.2L-925.874 312.504C-929.179 325.059 -932.648 338.11 -934.301 351.326L-989.982 342.075C-986.182 319.112 -981.225 297.47 -975.111 277.151L-978.746 275.994L-975.111 276.82C-973.129 268.064 -969.824 259.309 -966.52 250.883C-964.702 246.258 -963.05 241.467 -961.232 236.346C-956.606 223.46 -951.815 210.079 -945.371 197.854L-940.744 188.107L-883.246 216.191L-881.594 212.887C-880.272 210.244 -879.115 207.601 -877.793 204.957C-875.48 200.001 -873.167 195.21 -870.689 190.585L-855.653 165.97L-896.464 141.024L-913.978 170.1L-891.838 182.325L-888.203 175.717L-903.569 167.291L-893.986 151.267L-865.897 168.448L-877.133 186.95C-879.776 191.741 -882.089 196.862 -884.403 201.818C-885.063 203.305 -885.89 204.792 -886.55 206.279L-937.275 181.499C-933.805 174.23 -930.335 166.796 -926.7 159.857L-904.56 123.348L-907.699 121.365L-904.395 123.182C-899.438 114.427 -893.325 106.167 -887.211 98.2369C-884.733 95.0981 -882.42 91.9592 -880.107 88.8204L-874.654 81.5515C-868.21 72.7958 -861.436 63.7097 -853.671 55.78L-846.401 47.8503L-799.146 90.968L-779.98 69.8222L-758.5 50.3284L-790.72 14.9751L-815.834 37.773L-797.989 55.6148L-792.702 50.3284L-805.094 37.9382L-791.38 25.3829L-769.24 49.6675L-785.432 64.3705L-799.807 80.2299L-841.609 42.2335L-825.417 24.3916L-793.859 -4.35347C-767.588 -26.4905 -741.978 -45.1583 -717.029 -61.0177L-683.653 -6.17068L-659.2 -21.0389C-654.574 -23.5169 -649.782 -25.8297 -644.99 -28.1425C-642.182 -29.4641 -639.538 -30.7858 -636.729 -32.1074L-633.425 -33.7594L-654.408 -76.7119L-684.975 -61.8437L-672.914 -39.7067L-666.305 -43.3411L-674.731 -58.7049L-658.043 -66.7998L-643.669 -37.2286C-645.321 -36.4026 -646.808 -35.7418 -648.46 -34.9158C-653.417 -32.603 -658.208 -30.2902 -663.165 -27.6469L-681.505 -16.5784L-711.081 -65.1478C-691.254 -77.2075 -671.592 -87.6152 -652.095 -96.0405C-621.033 -109.917 -591.292 -120.656 -562.378 -128.75L-545.855 -66.6346L-535.611 -69.2778C-522.062 -72.9122 -507.853 -76.5467 -493.809 -78.0335L-489.843 -78.5291L-497.774 -125.942L-501.574 -125.281C-504.549 -124.786 -507.523 -124.29 -510.497 -123.96C-516.114 -123.134 -522.062 -122.308 -527.68 -120.656L-530.985 -119.664L-525.697 -95.3797L-518.428 -96.8665L-522.228 -114.213C-518.097 -115.204 -513.801 -115.7 -509.34 -116.36C-507.523 -116.691 -505.54 -116.856 -503.722 -117.186L-498.27 -84.972C-511.653 -83.1548 -524.706 -79.6855 -537.263 -76.3815L-540.403 -75.5555L-555.108 -130.402C-532.967 -136.185 -511.323 -140.48 -489.678 -143.123L-468.695 -146.262C-464.233 -146.923 -459.772 -147.088 -455.146 -147.253C-452.668 -147.253 -450.189 -147.418 -447.711 -147.583L-405.413 -149.731L-394.508 -149.236L-395.995 -85.4676L-392.526 -85.1372C-386.412 -84.6416 -380.299 -84.4764 -374.351 -84.146C-363.941 -83.8156 -353.202 -83.32 -342.793 -81.6679L-338.992 -81.0071L-333.375 -128.42L-336.844 -129.081C-343.949 -130.402 -351.219 -130.733 -358.159 -131.063L-367.246 -131.559L-369.063 -106.613L-361.628 -106.118L-360.306 -123.794H-358.489C-352.706 -123.464 -347.088 -123.134 -341.636 -122.308L-345.436 -89.5976C-355.019 -90.9193 -364.602 -91.2497 -374.02 -91.5801C-378.812 -91.7453 -383.603 -91.9105 -388.395 -92.2409L-387.073 -148.74L-362.785 -147.583C-360.306 -147.418 -357.828 -147.253 -355.184 -147.253C-350.723 -147.088 -346.097 -146.923 -341.801 -146.262L-320.652 -143.123C-290.251 -139.323 -259.354 -132.385 -227.63 -122.308L-246.962 -61.8437L-243.657 -60.5221C-237.709 -58.3745 -231.761 -56.2269 -225.813 -54.0792C-216.064 -50.4448 -206.151 -46.9756 -196.568 -43.1759L-193.263 -41.8543L-174.428 -85.6328L-177.897 -87.1196C-183.185 -89.4324 -188.637 -91.4149 -194.089 -93.3973C-196.898 -94.3885 -199.872 -95.5449 -202.681 -96.5361L-206.151 -97.8577L-214.908 -74.3991L-207.968 -71.7558L-201.855 -88.276C-200.203 -87.6152 -198.385 -86.9544 -196.733 -86.4588C-192.602 -84.972 -188.472 -83.4852 -184.506 -81.8331L-197.394 -51.6012C-205.986 -54.9052 -214.743 -58.2093 -223.5 -61.3481C-228.291 -63.1653 -233.083 -64.8174 -237.874 -66.6346L-220.691 -120.325C-200.533 -113.552 -179.88 -105.457 -158.566 -96.0405C-131.138 -84.146 -103.546 -68.7822 -75.2921 -49.4536L-110.816 2.91542L-64.8829 37.2774L-34.4813 0.437378L-61.5783 -19.8824L-76.6139 0.106979L-70.6658 4.56743L-60.0913 -9.47472L-45.221 1.75899L-66.2047 27.0349L-100.737 1.09819L-69.1788 -45.3235C-51.9953 -33.2638 -34.3161 -19.7172 -16.4717 -4.68387L14.7559 23.7309L43.5052 55.4496C45.9836 57.9276 48.1316 60.7361 50.4447 63.3793L1.5379 103.854L35.9048 149.78L75.559 122.852L55.2362 95.5937L35.0787 110.627L39.5398 116.574L53.7491 106.001L64.9845 120.87L37.7223 139.372L11.7819 104.845L55.2362 68.831C58.3756 72.7958 61.5148 76.9258 64.4889 80.8907L69.9413 88.1596C72.2545 91.2984 74.7329 94.6024 77.046 97.7413C82.9941 105.671 89.2728 113.931 94.2295 122.687L97.5341 120.87L94.3948 122.852L116.37 159.196C120.831 167.787 125.127 176.708 129.257 185.463L135.04 197.523C136.693 200.662 138.014 203.966 139.336 207.105L81.0115 232.05L82.3333 235.354C86.1334 244.936 89.6031 254.683 93.2382 264.43C95.386 270.377 97.5341 276.49 99.8472 282.437L101.169 285.741L146.606 271.203L135.04 239.319L111.413 248.075L114.057 255.013L130.579 248.901L137.023 266.412L105.63 276.49C103.812 271.699 102.16 266.743 100.343 261.952C97.2035 253.196 94.0643 244.606 90.7598 236.015L142.641 213.878C145.615 221.312 148.589 228.746 151.232 236.346C152.885 241.137 154.537 245.762 156.354 250.388C159.494 258.813 162.963 267.569 164.946 276.324L168.581 275.499L164.946 276.655C173.538 305.235 179.817 336.293 183.947 370.159L120.666 377.593L121.327 381.393C122.979 391.801 123.309 402.539 123.805 413.112C123.97 419.224 124.301 425.171 124.796 431.284L125.127 434.753L172.877 433.597L171.225 399.73L146.11 401.548L146.606 408.982L164.12 407.825L165.111 426.493L132.231 427.319C131.901 422.528 131.736 417.737 131.571 412.946C131.24 403.53 130.91 393.783 129.588 384.201L185.269 377.593C187.582 398.574 189.069 420.711 189.73 444.004C188.739 478.366 186.095 509.755 181.469 539.161L118.187 528.588L117.692 532.553C116.205 546.595 112.404 560.637 108.935 574.349L106.291 584.756L152.554 597.147L160.981 564.271L136.362 558.82L134.71 566.089L151.893 569.888L147.267 587.895L115.544 579.47L116.37 576.331C119.674 563.776 123.144 550.725 124.796 537.509L180.477 546.76C176.677 569.723 171.72 591.364 165.607 611.684L169.242 612.841L165.607 612.015L165.111 612.345Z" fill="#EC00C5"/>
<path d="M88.3999 589.665C99.6359 552.466 106.245 511.298 108.724 461.037L165.069 462.36C164.738 467.32 164.573 472.445 164.408 477.405C164.077 487.656 163.582 498.237 162.26 508.487L129.709 504.685C130.37 499.394 130.7 494.269 130.865 489.144V487.656L148.38 488.978L148.876 481.538L123.76 479.72L123.264 488.813C122.934 495.261 122.769 501.213 121.447 507.33L120.621 511.298L168.373 516.919L168.869 513.282C170.687 501.543 171.182 489.474 171.678 477.736C171.844 471.453 172.174 465.336 172.67 459.053L173 455.085L109.054 453.597C109.054 450.621 109.385 447.976 109.385 445C107.732 394.243 102.445 352.745 92.6959 315.711L146.893 301.161L147.554 303.972C151.189 317.694 154.824 331.913 156.807 346.297L124.256 351.753C124.091 350.1 123.76 348.612 123.595 346.958C123.099 342.99 122.438 338.857 121.612 334.889L138.631 331.252L137.144 323.977L112.359 329.268L113.516 333.07C114.837 337.865 115.498 342.825 116.324 347.95C116.655 350.926 117.151 353.902 117.646 356.713L118.307 360.35L165.234 352.414L164.904 348.942C163.086 332.905 158.955 317.198 154.99 301.988L152.346 291.903L90.7131 308.436C89.887 305.625 89.2261 302.815 88.3999 300.004C86.7476 292.233 83.9385 284.793 81.1295 277.684C79.6423 273.716 77.9901 269.583 76.6682 265.45L76.1724 263.962C72.3719 253.05 68.2412 241.807 62.7885 231.391C60.6404 226.927 58.4923 222.463 56.3442 217.999C53.2048 211.551 50.0654 204.938 46.7606 198.325L36.1856 180.965L84.4341 151.536L96.3311 171.211C98.9749 176.336 101.619 181.626 104.097 186.917C104.923 188.57 105.75 190.389 106.576 192.042L76.9987 206.426L69.5631 191.05L85.2604 182.453L81.6251 175.84L59.6489 187.744L73.5287 216.346L116.49 195.349L114.837 192.042C113.516 189.232 112.028 186.421 110.707 183.61C108.228 178.32 105.584 172.864 102.775 167.573L86.7476 141.285L32.22 174.682L27.7587 167.243C23.6277 159.472 18.3402 152.528 13.218 145.915C11.0699 143.104 8.92188 140.128 6.7738 137.152C4.95624 134.838 3.30383 132.523 1.65149 130.208C-3.80127 122.768 -9.41925 115.163 -16.0286 108.55L-40.8138 81.27L-55.8502 67.7128L-17.8461 25.8839L-0.826965 41.2597L14.8704 58.4542L-9.41919 80.6087L-20.9857 67.8781L-8.42773 55.3129L-13.7153 50.0223L-31.3954 67.7128L-10.0801 91.1899L25.2801 58.9502L4.29529 35.9691L-18.5071 15.3026L-61.6334 62.5875L-68.0776 56.8009C-106.742 24.3959 -141.607 1.08409 -176.141 -15.6144L-151.521 -66.0406L-146.399 -63.5606C-141.111 -61.0807 -135.989 -58.6007 -131.032 -55.9554L-111.204 -43.8862L-128.388 -15.7797L-142.929 -24.7077L-134.337 -40.2489L-140.946 -43.8862L-153.008 -22.0624L-125.91 -5.52918L-100.959 -46.3661L-127.397 -62.4033C-132.519 -65.214 -137.972 -67.6939 -143.259 -70.3392C-146.068 -71.6619 -148.877 -72.9846 -151.686 -74.4725L-154.991 -76.1259L-182.916 -18.7557C-185.56 -19.913 -188.203 -21.2357 -191.012 -22.393C-235.13 -42.0675 -275.943 -54.3021 -315.104 -60.75L-305.685 -116.797C-291.31 -114.814 -277.1 -111.176 -263.22 -107.539L-260.576 -106.878L-269.003 -75.1339L-285.527 -79.4325L-281.726 -96.7923L-288.997 -98.4457L-294.284 -73.9765L-263.55 -66.0406L-251.158 -112.334L-261.072 -114.979C-276.273 -118.947 -291.971 -123.08 -307.999 -124.899L-311.468 -125.229L-322.044 -62.0727C-325.018 -62.4033 -327.827 -63.23 -330.801 -63.5606L-348.646 -66.3713C-352.612 -66.8673 -356.578 -67.0326 -360.543 -67.1979C-362.691 -67.1979 -364.839 -67.3633 -367.153 -67.5286L-404 -69.3473L-440.517 -67.5286C-442.665 -67.5286 -444.813 -67.3633 -446.961 -67.1979C-450.927 -67.1979 -454.892 -66.8673 -459.023 -66.3713L-461.006 -66.0406L-467.615 -122.088C-457.371 -123.411 -446.796 -123.907 -436.551 -124.237C-431.594 -124.403 -426.472 -124.568 -421.515 -124.899L-420.689 -91.9977L-437.873 -91.1711L-439.03 -108.862L-446.465 -108.366L-444.813 -83.4005L-413.088 -85.0538L-414.245 -133L-418.21 -132.669C-424.489 -132.173 -430.603 -132.008 -436.882 -131.677C-448.448 -131.181 -460.51 -130.685 -472.407 -128.867L-476.042 -128.371L-468.607 -64.718L-477.199 -63.3953C-516.855 -58.6007 -558.164 -47.0275 -602.447 -28.5103L-624.919 -81.2511C-614.84 -85.2191 -604.76 -88.8564 -594.681 -92.4937C-590.385 -94.147 -585.924 -95.635 -581.627 -97.2883L-571.548 -66.0406L-587.576 -60.0887L-593.69 -76.6219L-600.629 -73.9765L-591.872 -50.4994L-562.13 -61.4113L-576.67 -107.043L-580.306 -105.72C-585.924 -103.736 -591.376 -101.587 -596.994 -99.603C-608.395 -95.4697 -619.797 -91.3364 -631.033 -86.8724L-634.668 -85.3844L-609.222 -25.6997C-611.865 -24.5423 -614.509 -23.5503 -617.318 -22.393C-653.174 -7.18249 -688.534 14.972 -727.695 46.5504L-764.047 2.57207L-727.034 -25.2037L-708.528 2.07608L-722.242 12.3267L-732.817 -1.89188L-738.766 2.57207L-723.729 22.7426L-698.283 3.7294L-725.216 -35.7849L-774.787 1.24942L-733.478 51.345C-735.792 53.1636 -737.94 54.9823 -740.253 56.8009L-767.517 81.6007L-791.806 108.55C-798.581 115.328 -804.199 122.934 -809.651 130.374C-811.304 132.688 -813.121 135.003 -814.939 137.483C-817.087 140.459 -819.235 143.269 -821.383 146.08C-823.366 148.56 -825.184 151.205 -827.166 153.851L-873.928 122.107L-846.168 85.0727L-820.887 106.07L-831.132 119.792L-845.177 109.211L-849.638 115.163L-829.48 130.208L-810.478 104.747L-847.325 74.3261L-884.338 123.926L-830.967 160.133C-832.619 162.613 -834.271 165.093 -835.593 167.573L-854.595 198.986C-857.9 205.434 -861.04 211.882 -864.014 218.495C-866.162 222.959 -868.31 227.423 -870.458 231.722C-876.076 242.138 -880.042 253.215 -883.842 263.962L-884.503 265.946C-885.825 270.079 -887.477 274.047 -888.964 278.18C-889.79 280.33 -890.617 282.644 -891.443 284.959L-945.309 267.764C-943.657 263.466 -942.17 259.167 -940.517 254.703C-936.882 244.618 -933.247 234.367 -929.281 224.282L-899.044 237.178C-900.531 240.981 -901.853 244.783 -903.34 248.586L-904.992 253.215L-921.515 246.932L-924.159 253.876L-900.696 262.639L-899.374 259.167C-898.383 256.356 -897.391 253.711 -896.4 250.9C-894.582 246.106 -892.93 241.146 -890.947 236.517L-889.46 233.045L-933.578 214.197L-935.065 217.834C-939.526 229.077 -943.657 240.65 -947.788 252.058C-949.771 257.679 -951.753 263.135 -953.901 268.756L-955.223 272.394L-894.086 291.903C-894.913 294.713 -895.904 297.359 -896.4 300.335C-907.636 337.534 -914.245 378.867 -916.724 428.963L-973.069 427.64C-972.738 422.68 -972.573 417.555 -972.408 412.595C-972.077 402.344 -971.582 391.763 -970.26 381.513L-937.708 385.315C-938.535 390.606 -938.7 395.896 -938.865 401.022V402.344L-956.38 401.022L-956.876 408.462L-931.76 410.28L-931.264 401.352C-930.934 394.904 -930.769 388.787 -929.447 382.67L-928.621 378.702L-976.373 373.081L-976.869 376.718C-978.687 388.456 -979.182 400.526 -979.678 412.264C-979.843 418.547 -980.174 424.664 -980.67 430.947L-981 434.915L-917.054 436.403C-917.054 439.213 -917.385 442.024 -917.385 445C-915.732 495.591 -910.445 537.09 -900.696 574.289L-954.893 588.839L-955.554 586.193C-959.189 572.305 -962.989 558.087 -964.807 543.703L-932.256 538.247C-932.09 539.9 -931.76 541.388 -931.595 543.042C-931.099 547.01 -930.438 551.143 -929.612 555.111L-946.631 558.748L-945.144 566.023L-920.359 560.732L-921.515 556.93C-922.837 552.135 -923.498 547.175 -924.324 542.05C-924.655 539.074 -925.151 536.098 -925.646 533.287L-926.307 529.65L-973.234 537.586L-972.903 541.058C-971.086 557.095 -966.955 572.967 -962.989 588.177L-960.346 598.097L-898.713 581.564C-897.887 584.375 -897.226 587.185 -896.4 589.996C-894.747 597.767 -891.938 605.041 -889.129 612.316C-887.642 616.449 -885.99 620.417 -884.668 624.716L-884.007 626.534C-880.207 637.281 -876.241 648.523 -870.623 658.774C-868.475 663.238 -866.327 667.702 -864.179 672.166C-861.04 678.614 -857.9 685.227 -854.595 691.84L-844.02 709.2L-892.269 738.629L-904.166 718.955C-906.81 713.829 -909.453 708.539 -911.932 703.248C-912.758 701.595 -913.584 699.776 -914.41 698.123L-884.833 683.739L-877.398 699.115L-893.095 707.712L-889.46 714.326L-867.649 702.422L-881.529 673.819L-924.49 694.816L-922.837 698.123C-921.515 700.934 -920.028 703.744 -918.706 706.555C-916.228 711.846 -913.584 717.301 -910.775 722.592L-894.747 748.88L-840.22 715.483L-835.759 722.923C-831.628 730.693 -826.34 737.637 -821.218 744.25C-819.07 747.061 -816.922 750.037 -814.774 753.013C-812.956 755.328 -811.304 757.642 -809.651 759.957C-804.199 767.397 -798.581 775.002 -791.971 781.616L-767.186 808.895L-752.15 822.452L-790.154 864.281L-807.173 848.906L-822.87 831.711L-798.581 809.557L-787.014 822.287L-799.572 834.852L-794.285 840.143L-776.605 822.452L-797.92 798.975L-833.28 831.215L-812.295 854.196L-789.493 874.863L-746.367 827.578L-739.922 833.364C-701.257 865.769 -666.393 889.081 -631.859 905.78L-656.479 956.206C-658.131 955.379 -659.949 954.553 -661.601 953.726C-666.889 951.246 -672.176 948.766 -677.133 946.121L-696.961 934.052L-679.777 905.945L-665.071 914.873L-673.663 930.414L-667.054 934.052L-654.992 912.228L-682.09 895.694L-707.041 936.531L-680.603 952.569C-675.316 955.379 -670.028 957.859 -664.741 960.505C-661.932 961.827 -659.123 963.15 -656.314 964.638L-653.009 966.291L-625.084 908.921C-622.44 910.078 -619.797 911.401 -616.988 912.558C-572.87 932.233 -532.222 944.467 -492.896 950.915L-502.315 1006.96C-516.69 1004.98 -530.9 1001.34 -544.78 997.704L-547.424 997.043L-538.997 965.299L-522.473 969.598L-526.274 986.958L-519.003 988.611L-513.716 964.142L-544.45 956.206L-556.842 1002.5L-546.928 1005.14C-531.726 1009.11 -516.029 1013.25 -499.836 1015.06L-496.366 1015.39L-485.791 952.238C-482.982 952.569 -480.008 953.23 -477.199 953.726L-459.188 956.537C-455.223 957.033 -451.257 957.198 -447.292 957.363C-445.143 957.363 -442.83 957.363 -440.682 957.694L-403.835 959.513L-367.318 957.529C-365.17 957.529 -363.022 957.363 -360.708 957.198C-356.743 957.198 -352.777 956.867 -348.812 956.371L-346.829 956.041L-340.219 1012.09C-350.464 1013.41 -361.039 1013.91 -371.284 1014.24C-376.241 1014.4 -381.363 1014.57 -386.32 1014.9L-387.146 981.998L-370.127 981.171L-368.97 998.861L-361.535 998.365L-363.187 973.401L-394.912 975.054L-393.755 1023L-389.79 1022.67C-383.511 1022.17 -377.397 1022.01 -371.118 1021.68C-359.552 1021.18 -347.49 1020.69 -335.593 1018.87L-331.958 1018.37L-339.393 954.718L-330.636 953.395C-290.979 948.601 -249.836 937.027 -205.553 918.51L-183.081 971.251C-192.995 975.219 -203.074 978.856 -213.154 982.494C-217.615 984.147 -222.076 985.8 -226.373 987.288L-236.452 956.041L-220.424 950.089L-214.31 966.622L-207.371 963.976L-216.128 940.499L-245.87 951.411L-231.33 997.043L-227.694 995.72C-222.076 993.571 -216.458 991.587 -210.84 989.603C-199.439 985.47 -188.203 981.336 -176.967 976.872L-173.332 975.384L-198.778 915.7C-196.135 914.542 -193.491 913.55 -190.682 912.393C-154.826 897.182 -119.466 875.028 -80.3049 843.45L-43.9533 887.428L-80.9659 915.204L-99.4722 887.924L-85.7577 877.673L-75.1827 891.892L-69.2342 887.428L-84.2706 867.257L-109.717 886.271L-82.7834 925.785L-33.213 888.751L-74.5217 838.655C-72.2084 836.836 -70.0604 835.018 -67.7471 833.199L-40.4833 808.399L-16.1938 781.45C-9.41919 774.672 -3.80127 767.066 1.65149 759.626C3.30383 757.312 5.12152 754.997 6.93909 752.517C9.08716 749.541 11.2352 746.73 13.3832 743.92C15.366 741.44 17.1836 738.795 19.1664 736.149L65.9279 767.893L38.1685 804.927L12.8875 783.93L23.1321 770.208L37.177 780.789L41.6384 774.837L21.4797 759.792L2.47772 785.253L39.3251 815.674L76.3376 766.074L22.9668 729.867C24.6191 727.387 26.2715 724.907 27.5934 722.427L46.5955 691.014C49.9001 684.566 53.0397 678.118 56.0138 671.505C58.1619 667.041 60.3099 662.577 62.458 658.278C68.0759 647.697 72.2068 636.454 76.0072 625.542L76.5029 624.054C77.8248 619.921 79.4771 615.953 80.9642 611.985C81.7904 609.67 82.6166 607.356 83.4427 605.041L137.309 622.236C135.657 626.534 134.17 630.833 132.683 635.132C129.048 645.382 125.247 655.467 121.447 665.553L91.2089 652.657C92.6959 648.854 94.0178 645.051 95.505 641.249C96.0006 639.761 96.6616 638.108 97.1572 636.62L113.681 642.737L116.324 635.793L92.8611 627.03L91.5392 630.502C90.5479 633.313 89.5564 635.958 88.5649 638.769C86.9126 643.563 85.0952 648.523 83.1123 653.153L81.6251 656.625L125.743 675.472L127.23 671.835C131.691 660.593 135.822 649.019 140.118 637.611C142.101 632.156 144.084 626.534 146.067 621.078L147.389 617.441L86.2517 597.932C87.0779 595.121 88.0693 592.476 88.5649 589.5L88.3999 589.665ZM74.1897 609.34C72.5374 613.473 71.0502 617.606 69.5631 621.74L69.0673 623.062C65.2668 633.809 61.3013 644.721 55.8486 654.971C53.7006 659.435 51.5525 663.899 49.4044 668.363C46.265 674.811 43.2908 681.259 40.1512 687.376L21.1492 718.459L24.2887 720.443L20.984 718.624C17.0184 725.899 11.8961 732.677 6.93909 739.125C4.79102 742.101 2.47772 744.912 0.329651 747.888C-1.48792 750.202 -3.14026 752.517 -4.95782 754.997C-10.2454 762.272 -15.6981 769.712 -22.1423 776.16L-46.4318 802.943L-73.3651 827.412C-116.987 863.951 -155.487 888.751 -194.482 905.284C-243.887 927.273 -289.162 940.5 -332.453 945.625L-350.299 948.435C-353.934 948.931 -357.734 949.097 -361.369 949.262C-363.683 949.262 -365.996 949.427 -368.144 949.593L-404.165 951.411L-440.517 949.593C-442.83 949.593 -444.978 949.427 -447.292 949.262C-451.092 949.262 -454.727 948.931 -458.362 948.435L-476.373 945.625C-519.83 940.5 -564.939 927.273 -614.344 905.284C-653.174 888.585 -691.674 863.951 -735.461 827.412L-762.064 803.274L-786.684 776.16C-792.963 769.877 -798.581 762.437 -803.868 755.162C-805.686 752.848 -807.338 750.368 -808.991 748.219C-811.139 745.242 -813.287 742.266 -815.6 739.456C-820.557 732.843 -825.844 726.064 -829.645 718.955L-832.95 720.773L-829.81 718.789L-848.647 687.872C-851.952 681.59 -854.926 674.977 -858.065 668.694C-860.213 664.23 -862.361 659.766 -864.675 655.137C-869.962 645.217 -873.928 634.305 -877.563 623.724L-878.224 622.07C-879.546 617.772 -881.198 613.638 -882.851 609.505C-885.66 602.231 -888.303 595.287 -889.956 588.012L-893.591 588.839L-889.956 587.681C-902.183 547.175 -908.792 501.874 -910.61 445C-908.792 388.126 -902.183 342.825 -889.956 302.319L-893.591 301.161L-889.956 301.988C-888.468 294.713 -885.825 287.769 -882.851 280.495C-881.198 276.362 -879.546 272.063 -878.224 267.93L-877.563 266.111C-873.763 255.53 -869.962 244.783 -864.509 234.698C-862.361 230.234 -860.213 225.77 -858.065 221.306C-854.926 214.858 -851.952 208.41 -848.812 202.293L-829.81 171.211L-832.95 169.227L-829.645 171.045C-825.679 163.771 -820.557 156.992 -815.6 150.544C-813.452 147.568 -811.139 144.757 -808.991 141.781C-807.173 139.467 -805.521 137.152 -803.703 134.672C-798.415 127.398 -792.963 119.958 -786.519 113.51L-762.229 86.726L-735.296 62.2569C-691.674 25.7185 -653.174 0.918762 -614.179 -15.6144C-564.608 -37.6035 -519.499 -50.8301 -476.208 -55.9554L-476.703 -59.9233L-476.042 -56.1207L-458.197 -58.9314C-454.397 -59.4274 -450.761 -59.5927 -446.961 -59.758C-444.648 -59.758 -442.5 -59.9233 -440.352 -60.0887L-404.33 -61.9073L-367.979 -60.0887C-365.666 -60.0887 -363.517 -59.9233 -361.204 -59.758C-357.404 -59.758 -353.769 -59.4274 -350.133 -58.9314L-332.123 -56.1207L-331.462 -59.9233L-331.958 -55.9554C-288.501 -50.8301 -243.392 -37.6035 -193.987 -15.6144C-155.156 1.08409 -116.657 25.7185 -72.8694 62.2569L-46.2665 86.3953L-21.6466 113.51C-15.3677 119.792 -9.74969 127.232 -4.46216 134.507C-2.64459 136.822 -0.992188 139.301 0.660156 141.451C2.80817 144.427 4.95618 147.403 7.26947 150.213C12.2266 156.827 17.5141 163.605 21.3145 170.715L24.6192 168.896L21.4797 170.88L40.3165 201.797C43.6212 208.079 46.5953 214.693 49.7349 220.975C51.8829 225.439 54.031 229.903 56.3442 234.533C61.797 244.618 65.5974 255.53 69.3978 266.276L69.8936 267.599C71.2153 271.732 72.8677 276.031 74.52 280.164C77.3291 287.439 79.9728 294.383 81.6251 301.657L85.2604 300.831L81.6251 301.988C93.8525 342.329 100.462 387.795 102.28 444.669C100.462 501.543 93.8525 546.844 81.6251 587.351L85.2604 588.508L81.6251 587.681C80.1381 594.956 77.3291 601.9 74.52 609.174L74.1897 609.34Z" fill="#EC00C5"/>
</svg>
